<svg xmlns="http://www.w3.org/2000/svg" xmlns:xlink="http://www.w3.org/1999/xlink" zoomAndPan="magnify" preserveAspectRatio="xMidYMid meet" version="1.0" viewBox="22.12 60.82 309.85 239.61"><defs><g/><clipPath id="a45d0338a7"><path d="M 92.632812 60.824219 L 331.882812 60.824219 L 331.882812 300.074219 L 92.632812 300.074219 Z M 92.632812 60.824219 " clip-rule="nonzero"/></clipPath><clipPath id="b59ff0692c"><path d="M 176.792969 144.679688 L 248.042969 144.679688 L 248.042969 215.929688 L 176.792969 215.929688 Z M 176.792969 144.679688 " clip-rule="nonzero"/></clipPath></defs><g fill="#1b66cd" fill-opacity="1"><g transform="translate(103.128235, 213.889284)"><g><path d="M 43.535156 -53.582031 C 43.535156 -60.949219 37.507812 -66.976562 30.140625 -66.976562 L 3.347656 -66.976562 L 3.347656 -53.582031 L 30.140625 -53.582031 L 30.140625 -13.394531 L 3.347656 -13.394531 L 3.347656 0 L 70.328125 0 L 70.328125 -13.394531 L 43.535156 -13.394531 Z M 43.535156 -53.582031 "/></g></g></g><g fill="#1b66cd" fill-opacity="1"><g transform="translate(18.772879, 134.811351)"><g><path d="M 43.535156 -53.582031 C 43.535156 -60.949219 37.507812 -66.976562 30.140625 -66.976562 L 3.347656 -66.976562 L 3.347656 -53.582031 L 30.140625 -53.582031 L 30.140625 -13.394531 L 3.347656 -13.394531 L 3.347656 0 L 70.328125 0 L 70.328125 -13.394531 L 43.535156 -13.394531 Z M 43.535156 -53.582031 "/></g></g></g><g fill="#1b66cd" fill-opacity="1"><g transform="translate(92.443719, 134.811351)"><g><path d="M 56.929688 0 C 64.382812 0 70.328125 -6.113281 70.328125 -13.394531 L 70.328125 -53.582031 C 70.328125 -60.949219 64.300781 -66.976562 56.929688 -66.976562 L 16.746094 -66.976562 C 9.378906 -66.976562 3.347656 -60.949219 3.347656 -53.582031 L 3.347656 -13.394531 C 3.347656 -6.027344 9.378906 0 16.746094 0 Z M 16.746094 -53.582031 L 56.929688 -53.582031 L 56.929688 -13.394531 L 16.746094 -13.394531 Z M 43.535156 -26.792969 L 43.535156 -40.1875 L 30.140625 -40.1875 L 30.140625 -26.792969 Z M 43.535156 -26.792969 "/></g></g></g><g fill="#1b66cd" fill-opacity="1"><g transform="translate(25.383453, 296.378498)"><g><path d="M 70.328125 -13.394531 L 26.207031 -13.394531 L 68.316406 -55.507812 C 69.574219 -56.765625 70.328125 -58.4375 70.328125 -60.28125 C 70.328125 -63.964844 67.3125 -66.976562 63.628906 -66.976562 L 3.347656 -66.976562 L 3.347656 -53.582031 L 47.472656 -53.582031 L 5.359375 -11.46875 C 4.101562 -10.214844 3.347656 -8.539062 3.347656 -6.699219 C 3.347656 -3.015625 6.363281 0 10.046875 0 L 70.328125 0 Z M 70.328125 -13.394531 "/></g></g></g><g fill="#1b66cd" fill-opacity="1"><g transform="translate(99.054293, 296.378498)"><g><path d="M 70.328125 -66.976562 L 16.746094 -66.976562 C 9.378906 -66.976562 3.347656 -60.949219 3.347656 -53.582031 L 3.347656 -13.394531 C 3.347656 -6.027344 9.378906 0 16.746094 0 L 70.328125 0 L 70.328125 -13.394531 L 16.746094 -13.394531 L 16.746094 -26.792969 L 70.328125 -26.792969 L 70.328125 -40.1875 L 16.746094 -40.1875 L 16.746094 -53.582031 L 70.328125 -53.582031 Z M 70.328125 -66.976562 "/></g></g></g><g fill="#1b66cd" fill-opacity="1"><g transform="translate(172.725133, 296.378498)"><g><path d="M 70.328125 -53.582031 C 70.328125 -60.949219 64.300781 -66.976562 56.929688 -66.976562 L 3.347656 -66.976562 L 3.347656 0 L 16.746094 0 L 16.746094 -26.792969 L 24.613281 -26.792969 L 49.398438 -2.007812 C 50.734375 -0.667969 52.410156 0 54.253906 0 L 70.328125 0 L 70.328125 -13.394531 L 56.929688 -13.394531 L 43.535156 -26.792969 L 56.929688 -26.792969 C 64.300781 -26.792969 70.328125 -32.820312 70.328125 -40.1875 Z M 56.929688 -53.582031 L 56.929688 -40.1875 L 16.746094 -40.1875 L 16.746094 -53.582031 Z M 56.929688 -53.582031 "/></g></g></g><g fill="#1b66cd" fill-opacity="1"><g transform="translate(246.395974, 296.378498)"><g><path d="M 56.929688 0 C 64.382812 0 70.328125 -6.113281 70.328125 -13.394531 L 70.328125 -53.582031 C 70.328125 -60.949219 64.300781 -66.976562 56.929688 -66.976562 L 16.746094 -66.976562 C 9.378906 -66.976562 3.347656 -60.949219 3.347656 -53.582031 L 3.347656 -13.394531 C 3.347656 -6.027344 9.378906 0 16.746094 0 Z M 16.746094 -53.582031 L 56.929688 -53.582031 L 56.929688 -13.394531 L 16.746094 -13.394531 Z M 43.535156 -26.792969 L 43.535156 -40.1875 L 30.140625 -40.1875 L 30.140625 -26.792969 Z M 43.535156 -26.792969 "/></g></g></g><path fill="#0497ff" d="M 195.601562 197.109375 L 195.601562 163.96875 L 228.738281 163.96875 L 228.738281 197.109375 Z M 231.90625 200.277344 L 231.90625 160.804688 L 192.4375 160.804688 L 192.4375 200.277344 L 231.90625 200.277344 " fill-opacity="1" fill-rule="nonzero"/><g clip-path="url(#a45d0338a7)"><path fill="#0497ff" d="M 206.949219 281.925781 C 206.949219 283.847656 205.390625 285.410156 203.464844 285.410156 C 201.546875 285.410156 199.980469 283.847656 199.980469 281.925781 C 199.980469 280.003906 201.546875 278.441406 203.464844 278.441406 C 205.390625 278.441406 206.949219 280.003906 206.949219 281.925781 Z M 190.679688 265.632812 C 190.679688 266.914062 189.636719 267.957031 188.359375 267.957031 C 187.078125 267.957031 186.035156 266.914062 186.035156 265.632812 C 186.035156 264.351562 187.078125 263.3125 188.359375 263.3125 C 189.636719 263.3125 190.679688 264.351562 190.679688 265.632812 Z M 184.207031 208.503906 L 184.207031 152.574219 L 240.132812 152.574219 L 240.132812 208.503906 Z M 127.074219 206.695312 C 125.796875 206.695312 124.753906 205.652344 124.753906 204.375 C 124.753906 203.09375 125.796875 202.050781 127.074219 202.050781 C 128.355469 202.050781 129.398438 203.09375 129.398438 204.375 C 129.398438 205.652344 128.355469 206.695312 127.074219 206.695312 Z M 110.785156 192.746094 C 108.863281 192.746094 107.300781 191.1875 107.300781 189.265625 C 107.300781 187.34375 108.863281 185.78125 110.785156 185.78125 C 112.703125 185.78125 114.265625 187.34375 114.265625 189.265625 C 114.265625 191.1875 112.703125 192.746094 110.785156 192.746094 Z M 110.785156 168.347656 C 108.863281 168.347656 107.300781 166.785156 107.300781 164.863281 C 107.300781 162.945312 108.863281 161.382812 110.785156 161.382812 C 112.703125 161.382812 114.265625 162.945312 114.265625 164.863281 C 114.265625 166.785156 112.703125 168.347656 110.785156 168.347656 Z M 186.035156 95.445312 C 186.035156 94.164062 187.078125 93.121094 188.359375 93.121094 C 189.636719 93.121094 190.679688 94.164062 190.679688 95.445312 C 190.679688 96.726562 189.636719 97.765625 188.359375 97.765625 C 187.078125 97.765625 186.035156 96.726562 186.035156 95.445312 Z M 199.980469 79.152344 C 199.980469 77.230469 201.546875 75.667969 203.464844 75.667969 C 205.390625 75.667969 206.949219 77.230469 206.949219 79.152344 C 206.949219 81.074219 205.390625 82.636719 203.464844 82.636719 C 201.546875 82.636719 199.980469 81.074219 199.980469 79.152344 Z M 224.382812 79.152344 C 224.382812 77.230469 225.945312 75.667969 227.867188 75.667969 C 229.789062 75.667969 231.347656 77.230469 231.347656 79.152344 C 231.347656 81.074219 229.789062 82.636719 227.867188 82.636719 C 225.945312 82.636719 224.382812 81.074219 224.382812 79.152344 Z M 313.558594 161.382812 C 315.476562 161.382812 317.042969 162.945312 317.042969 164.863281 C 317.042969 166.785156 315.476562 168.347656 313.558594 168.347656 C 311.636719 168.347656 310.074219 166.785156 310.074219 164.863281 C 310.074219 162.945312 311.636719 161.382812 313.558594 161.382812 Z M 313.558594 185.78125 C 315.476562 185.78125 317.042969 187.34375 317.042969 189.265625 C 317.042969 191.1875 315.476562 192.746094 313.558594 192.746094 C 311.636719 192.746094 310.074219 191.1875 310.074219 189.265625 C 310.074219 187.34375 311.636719 185.78125 313.558594 185.78125 Z M 297.265625 202.050781 C 298.546875 202.050781 299.585938 203.09375 299.585938 204.375 C 299.585938 205.652344 298.546875 206.695312 297.265625 206.695312 C 295.984375 206.695312 294.941406 205.652344 294.941406 204.375 C 294.941406 203.09375 295.984375 202.050781 297.265625 202.050781 Z M 231.347656 281.925781 C 231.347656 283.847656 229.789062 285.410156 227.867188 285.410156 C 225.945312 285.410156 224.382812 283.847656 224.382812 281.925781 C 224.382812 280.003906 225.945312 278.441406 227.867188 278.441406 C 229.789062 278.441406 231.347656 280.003906 231.347656 281.925781 Z M 216.015625 296.234375 C 216.015625 294.195312 214.496094 292.515625 212.53125 292.253906 L 212.53125 282.390625 L 219.382812 275.539062 L 219.382812 234.960938 L 209.410156 224.988281 L 209.410156 215.953125 L 210.359375 215.953125 L 210.359375 213.84375 L 213.980469 213.84375 L 213.980469 215.953125 L 215.167969 215.953125 L 215.167969 225.59375 L 224.335938 234.757812 C 223.53125 235.808594 223.605469 237.316406 224.566406 238.277344 C 225.613281 239.324219 227.308594 239.324219 228.355469 238.277344 C 229.402344 237.230469 229.402344 235.535156 228.355469 234.488281 C 227.394531 233.53125 225.886719 233.453125 224.839844 234.253906 L 215.882812 225.296875 L 215.882812 215.953125 L 217.007812 215.953125 L 217.007812 213.84375 L 220.628906 213.84375 L 220.628906 215.953125 L 221.992188 215.953125 L 221.992188 220.679688 L 234.578125 233.265625 L 234.578125 252.296875 L 227.332031 259.542969 L 227.332031 277.40625 C 225.074219 277.671875 223.316406 279.597656 223.316406 281.925781 C 223.316406 284.433594 225.355469 286.476562 227.867188 286.476562 C 230.375 286.476562 232.417969 284.433594 232.417969 281.925781 C 232.417969 279.597656 230.660156 277.671875 228.402344 277.40625 L 228.402344 259.984375 L 235.644531 252.738281 L 235.644531 232.824219 L 223.058594 220.238281 L 223.058594 215.953125 L 223.660156 215.953125 L 223.660156 213.84375 L 227.277344 213.84375 L 227.277344 215.953125 L 228.59375 215.953125 L 228.59375 220.84375 L 239.277344 231.527344 L 239.277344 257.121094 L 236.972656 259.425781 C 235.921875 258.621094 234.414062 258.699219 233.453125 259.660156 C 232.40625 260.707031 232.40625 262.402344 233.453125 263.449219 C 234.5 264.492188 236.195312 264.492188 237.242188 263.449219 C 238.199219 262.484375 238.277344 260.980469 237.472656 259.929688 L 239.988281 257.417969 L 239.988281 231.234375 L 229.304688 220.546875 L 229.304688 215.953125 L 230.308594 215.953125 L 230.308594 213.84375 L 233.929688 213.84375 L 233.929688 215.953125 L 235.164062 215.953125 L 235.164062 219.730469 L 245.730469 230.296875 L 245.730469 266.75 L 255.371094 276.394531 C 254.167969 277.96875 254.28125 280.226562 255.71875 281.667969 C 257.289062 283.238281 259.835938 283.238281 261.402344 281.667969 C 262.972656 280.097656 262.972656 277.554688 261.402344 275.988281 C 259.960938 274.546875 257.699219 274.433594 256.125 275.636719 L 246.796875 266.308594 L 246.796875 229.855469 L 236.230469 219.289062 L 236.230469 215.953125 L 236.957031 215.953125 L 236.957031 213.84375 L 240.578125 213.84375 L 240.578125 215.953125 L 241.640625 215.953125 L 241.640625 220.371094 L 251.730469 230.460938 L 251.730469 243.625 C 250.421875 243.800781 249.410156 244.917969 249.410156 246.277344 C 249.410156 247.757812 250.609375 248.957031 252.085938 248.957031 C 253.566406 248.957031 254.765625 247.757812 254.765625 246.277344 C 254.765625 244.917969 253.753906 243.800781 252.445312 243.625 L 252.445312 230.167969 L 242.351562 220.074219 L 242.351562 215.953125 L 243.605469 215.953125 L 243.605469 213.84375 L 245.476562 213.84375 L 245.476562 211.972656 L 247.582031 211.972656 L 247.582031 210.988281 L 258.757812 210.988281 L 268.375 220.605469 L 289.628906 220.605469 L 297.058594 228.035156 C 295.851562 229.609375 295.964844 231.871094 297.40625 233.3125 C 298.976562 234.878906 301.519531 234.878906 303.089844 233.3125 C 304.660156 231.742188 304.660156 229.199219 303.089844 227.628906 C 301.648438 226.1875 299.386719 226.074219 297.8125 227.28125 L 290.070312 219.535156 L 268.816406 219.535156 L 259.199219 209.917969 L 247.582031 209.917969 L 247.582031 208.949219 L 245.476562 208.949219 L 245.476562 205.324219 L 247.582031 205.324219 L 247.582031 204.046875 L 260.015625 204.046875 L 267.789062 211.820312 L 281.6875 211.820312 L 288.777344 204.730469 L 294.253906 204.730469 C 294.429688 206.234375 295.710938 207.410156 297.265625 207.410156 C 298.9375 207.410156 300.300781 206.046875 300.300781 204.375 C 300.300781 202.699219 298.9375 201.339844 297.265625 201.339844 C 295.710938 201.339844 294.429688 202.511719 294.253906 204.015625 L 288.480469 204.015625 L 281.390625 211.109375 L 268.085938 211.109375 L 260.3125 203.335938 L 247.582031 203.335938 L 247.582031 202.296875 L 245.476562 202.296875 L 245.476562 198.675781 L 247.582031 198.675781 L 247.582031 197.457031 L 267.746094 197.457031 L 275.40625 189.800781 L 309.039062 189.800781 C 309.304688 192.058594 311.230469 193.816406 313.558594 193.816406 C 316.066406 193.816406 318.109375 191.773438 318.109375 189.265625 C 318.109375 186.753906 316.066406 184.710938 313.558594 184.710938 C 311.230469 184.710938 309.304688 186.472656 309.039062 188.730469 L 274.964844 188.730469 L 267.304688 196.386719 L 247.582031 196.386719 L 247.582031 195.648438 L 245.476562 195.648438 L 245.476562 192.027344 L 247.582031 192.027344 L 247.582031 190.511719 L 260.3125 190.511719 L 270.796875 180.03125 L 285.230469 180.03125 C 285.40625 181.339844 286.523438 182.351562 287.882812 182.351562 C 289.363281 182.351562 290.5625 181.152344 290.5625 179.671875 C 290.5625 178.195312 289.363281 176.996094 287.882812 176.996094 C 286.523438 176.996094 285.40625 178.007812 285.230469 179.316406 L 270.5 179.316406 L 260.015625 189.800781 L 247.582031 189.800781 L 247.582031 189 L 245.476562 189 L 245.476562 185.378906 L 247.582031 185.378906 L 247.582031 184.390625 L 257.0625 184.390625 L 267.035156 174.417969 L 306.726562 174.417969 L 313.578125 181.269531 L 323.886719 181.269531 C 324.148438 183.234375 325.828125 184.753906 327.867188 184.753906 C 330.082031 184.753906 331.882812 182.953125 331.882812 180.734375 C 331.882812 178.515625 330.082031 176.71875 327.867188 176.71875 C 325.828125 176.71875 324.148438 178.234375 323.886719 180.203125 L 314.019531 180.203125 L 307.167969 173.347656 L 266.59375 173.347656 L 256.621094 183.324219 L 247.582031 183.324219 L 247.582031 182.347656 L 245.476562 182.347656 L 245.476562 178.726562 L 247.582031 178.726562 L 247.582031 177.5625 L 257.226562 177.5625 L 266.390625 168.398438 C 267.441406 169.203125 268.949219 169.125 269.910156 168.164062 C 270.957031 167.117188 270.957031 165.421875 269.910156 164.375 C 268.863281 163.332031 267.164062 163.332031 266.121094 164.375 C 265.160156 165.335938 265.085938 166.84375 265.886719 167.894531 L 256.929688 176.851562 L 247.582031 176.851562 L 247.582031 175.699219 L 245.476562 175.699219 L 245.476562 172.078125 L 247.582031 172.078125 L 247.582031 170.738281 L 252.3125 170.738281 L 264.894531 158.15625 L 283.929688 158.15625 L 291.171875 165.398438 L 309.039062 165.398438 C 309.304688 167.65625 311.230469 169.417969 313.558594 169.417969 C 316.066406 169.417969 318.109375 167.375 318.109375 164.863281 C 318.109375 162.355469 316.066406 160.3125 313.558594 160.3125 C 311.230469 160.3125 309.304688 162.074219 309.039062 164.332031 L 291.613281 164.332031 L 284.371094 157.085938 L 264.453125 157.085938 L 251.867188 169.671875 L 247.582031 169.671875 L 247.582031 169.050781 L 245.476562 169.050781 L 245.476562 165.429688 L 247.582031 165.429688 L 247.582031 164.136719 L 252.476562 164.136719 L 263.160156 153.453125 L 288.753906 153.453125 L 291.058594 155.761719 C 290.253906 156.808594 290.332031 158.316406 291.292969 159.277344 C 292.335938 160.324219 294.035156 160.324219 295.078125 159.277344 C 296.125 158.234375 296.125 156.535156 295.078125 155.488281 C 294.117188 154.53125 292.613281 154.453125 291.5625 155.257812 L 289.046875 152.742188 L 262.863281 152.742188 L 252.179688 163.425781 L 247.582031 163.425781 L 247.582031 162.402344 L 245.476562 162.402344 L 245.476562 158.777344 L 247.582031 158.777344 L 247.582031 157.570312 L 251.363281 157.570312 L 261.929688 147.003906 L 298.382812 147.003906 L 308.023438 137.359375 C 309.601562 138.566406 311.859375 138.453125 313.300781 137.011719 C 314.871094 135.441406 314.871094 132.898438 313.300781 131.328125 C 311.730469 129.761719 309.1875 129.761719 307.617188 131.328125 C 306.179688 132.769531 306.0625 135.03125 307.269531 136.605469 L 297.941406 145.933594 L 261.484375 145.933594 L 250.917969 156.5 L 247.582031 156.5 L 247.582031 155.753906 L 245.476562 155.753906 L 245.476562 152.128906 L 247.582031 152.128906 L 247.582031 151.09375 L 252 151.09375 L 262.09375 141 L 275.257812 141 C 275.433594 142.308594 276.550781 143.320312 277.910156 143.320312 C 279.386719 143.320312 280.589844 142.121094 280.589844 140.640625 C 280.589844 139.164062 279.386719 137.964844 277.910156 137.964844 C 276.550781 137.964844 275.433594 138.976562 275.257812 140.285156 L 261.800781 140.285156 L 251.707031 150.378906 L 247.582031 150.378906 L 247.582031 149.101562 L 245.476562 149.101562 L 245.476562 147.234375 L 243.605469 147.234375 L 243.605469 145.125 L 242.351562 145.125 L 242.351562 141.003906 L 252.445312 130.910156 L 252.445312 117.449219 C 253.753906 117.277344 254.765625 116.15625 254.765625 114.800781 C 254.765625 113.320312 253.566406 112.121094 252.085938 112.121094 C 250.609375 112.121094 249.410156 113.320312 249.410156 114.800781 C 249.410156 116.15625 250.421875 117.277344 251.730469 117.449219 L 251.730469 130.613281 L 241.640625 140.707031 L 241.640625 145.125 L 240.578125 145.125 L 240.578125 147.234375 L 236.957031 147.234375 L 236.957031 145.125 L 236.230469 145.125 L 236.230469 141.789062 L 246.796875 131.222656 L 246.796875 94.769531 L 256.125 85.441406 C 257.699219 86.644531 259.960938 86.53125 261.402344 85.089844 C 262.972656 83.523438 262.972656 80.976562 261.402344 79.410156 C 259.835938 77.839844 257.289062 77.839844 255.71875 79.410156 C 254.28125 80.851562 254.167969 83.109375 255.371094 84.683594 L 245.730469 94.328125 L 245.730469 130.78125 L 235.164062 141.347656 L 235.164062 145.125 L 233.929688 145.125 L 233.929688 147.234375 L 230.308594 147.234375 L 230.308594 145.125 L 229.304688 145.125 L 229.304688 140.53125 L 239.988281 129.84375 L 239.988281 103.660156 L 237.472656 101.148438 C 238.277344 100.097656 238.199219 98.589844 237.242188 97.628906 C 236.195312 96.585938 234.5 96.585938 233.453125 97.628906 C 232.40625 98.675781 232.40625 100.371094 233.453125 101.417969 C 234.414062 102.378906 235.921875 102.453125 236.972656 101.652344 L 239.277344 103.957031 L 239.277344 129.550781 L 228.59375 140.234375 L 228.59375 145.125 L 227.277344 145.125 L 227.277344 147.234375 L 223.660156 147.234375 L 223.660156 145.125 L 223.058594 145.125 L 223.058594 140.839844 L 235.644531 128.253906 L 235.644531 108.335938 L 228.402344 101.09375 L 228.402344 83.667969 C 230.660156 83.40625 232.417969 81.480469 232.417969 79.152344 C 232.417969 76.640625 230.375 74.601562 227.867188 74.601562 C 225.355469 74.601562 223.316406 76.640625 223.316406 79.152344 C 223.316406 81.480469 225.074219 83.40625 227.332031 83.667969 L 227.332031 101.535156 L 234.578125 108.78125 L 234.578125 127.8125 L 221.992188 140.398438 L 221.992188 145.125 L 220.628906 145.125 L 220.628906 147.234375 L 217.007812 147.234375 L 217.007812 145.125 L 215.882812 145.125 L 215.882812 135.777344 L 224.839844 126.820312 C 225.886719 127.625 227.394531 127.546875 228.355469 126.589844 C 229.402344 125.542969 229.402344 123.84375 228.355469 122.800781 C 227.308594 121.753906 225.613281 121.753906 224.566406 122.800781 C 223.605469 123.761719 223.53125 125.269531 224.335938 126.316406 L 215.167969 135.484375 L 215.167969 145.125 L 213.980469 145.125 L 213.980469 147.234375 L 210.359375 147.234375 L 210.359375 145.125 L 209.410156 145.125 L 209.410156 136.089844 L 219.382812 126.117188 L 219.382812 85.539062 L 212.53125 78.6875 L 212.53125 68.820312 C 214.496094 68.5625 216.015625 66.882812 216.015625 64.84375 C 216.015625 62.625 214.214844 60.824219 211.996094 60.824219 C 209.777344 60.824219 207.976562 62.625 207.976562 64.84375 C 207.976562 66.882812 209.496094 68.5625 211.460938 68.820312 L 211.460938 79.128906 L 218.3125 85.980469 L 218.3125 125.671875 L 208.339844 135.644531 L 208.339844 145.125 L 207.332031 145.125 L 207.332031 147.234375 L 203.710938 147.234375 L 203.710938 145.125 L 202.929688 145.125 L 202.929688 132.691406 L 213.414062 122.207031 L 213.414062 107.476562 C 214.722656 107.304688 215.738281 106.183594 215.738281 104.824219 C 215.738281 103.347656 214.535156 102.148438 213.058594 102.148438 C 211.578125 102.148438 210.378906 103.347656 210.378906 104.824219 C 210.378906 106.183594 211.390625 107.304688 212.699219 107.476562 L 212.699219 121.914062 L 202.21875 132.398438 L 202.21875 145.125 L 200.683594 145.125 L 200.683594 147.234375 L 197.0625 147.234375 L 197.0625 145.125 L 196.34375 145.125 L 196.34375 125.402344 L 204.003906 117.746094 L 204.003906 83.667969 C 206.261719 83.40625 208.019531 81.480469 208.019531 79.152344 C 208.019531 76.640625 205.976562 74.601562 203.464844 74.601562 C 200.957031 74.601562 198.914062 76.640625 198.914062 79.152344 C 198.914062 81.480469 200.675781 83.40625 202.933594 83.667969 L 202.933594 117.304688 L 195.277344 124.960938 L 195.277344 145.125 L 194.035156 145.125 L 194.035156 147.234375 L 190.410156 147.234375 L 190.410156 145.125 L 189.394531 145.125 L 189.394531 132.398438 L 181.621094 124.625 L 181.621094 111.316406 L 188.714844 104.226562 L 188.714844 98.457031 C 190.21875 98.28125 191.390625 96.996094 191.390625 95.445312 C 191.390625 93.773438 190.03125 92.410156 188.359375 92.410156 C 186.683594 92.410156 185.324219 93.773438 185.324219 95.445312 C 185.324219 96.996094 186.496094 98.28125 188.003906 98.457031 L 188.003906 103.929688 L 180.910156 111.023438 L 180.910156 124.917969 L 188.683594 132.691406 L 188.683594 145.125 L 187.382812 145.125 L 187.382812 147.234375 L 183.761719 147.234375 L 183.761719 145.125 L 182.8125 145.125 L 182.8125 133.507812 L 173.195312 123.890625 L 173.195312 102.636719 L 165.453125 94.898438 C 166.65625 93.320312 166.542969 91.0625 165.101562 89.621094 C 163.53125 88.050781 160.988281 88.050781 159.421875 89.621094 C 157.851562 91.191406 157.851562 93.734375 159.421875 95.300781 C 160.859375 96.742188 163.121094 96.855469 164.695312 95.652344 L 172.125 103.082031 L 172.125 124.335938 L 181.742188 133.953125 L 181.742188 145.125 L 180.734375 145.125 L 180.734375 147.234375 L 178.863281 147.234375 L 178.863281 149.101562 L 176.757812 149.101562 L 176.757812 150.378906 L 172.632812 150.378906 L 162.542969 140.285156 L 149.082031 140.285156 C 148.90625 138.976562 147.789062 137.964844 146.429688 137.964844 C 144.953125 137.964844 143.753906 139.164062 143.753906 140.640625 C 143.753906 142.121094 144.953125 143.320312 146.429688 143.320312 C 147.789062 143.320312 148.90625 142.308594 149.082031 141 L 162.25 141 L 172.339844 151.09375 L 176.757812 151.09375 L 176.757812 152.128906 L 178.863281 152.128906 L 178.863281 155.753906 L 176.757812 155.753906 L 176.757812 156.5 L 173.421875 156.5 L 162.855469 145.933594 L 126.398438 145.933594 L 117.074219 136.605469 C 118.277344 135.03125 118.164062 132.769531 116.722656 131.328125 C 115.15625 129.761719 112.609375 129.761719 111.039062 131.328125 C 109.472656 132.898438 109.472656 135.441406 111.039062 137.011719 C 112.480469 138.453125 114.742188 138.566406 116.316406 137.359375 L 125.957031 147.003906 L 162.410156 147.003906 L 172.976562 157.570312 L 176.757812 157.570312 L 176.757812 158.777344 L 178.863281 158.777344 L 178.863281 162.402344 L 176.757812 162.402344 L 176.757812 163.425781 L 172.160156 163.425781 L 161.476562 152.742188 L 135.292969 152.742188 L 132.78125 155.257812 C 131.726562 154.453125 130.222656 154.53125 129.261719 155.488281 C 128.214844 156.535156 128.214844 158.234375 129.261719 159.277344 C 130.308594 160.324219 132.003906 160.324219 133.050781 159.277344 C 134.011719 158.316406 134.085938 156.808594 133.285156 155.761719 L 135.585938 153.453125 L 161.179688 153.453125 L 171.867188 164.136719 L 176.757812 164.136719 L 176.757812 165.429688 L 178.863281 165.429688 L 178.863281 169.050781 L 176.757812 169.050781 L 176.757812 169.671875 L 172.472656 169.671875 L 159.886719 157.085938 L 139.96875 157.085938 L 132.726562 164.332031 L 115.300781 164.332031 C 115.035156 162.074219 113.113281 160.3125 110.785156 160.3125 C 108.273438 160.3125 106.230469 162.355469 106.230469 164.863281 C 106.230469 167.375 108.273438 169.417969 110.785156 169.417969 C 113.113281 169.417969 115.035156 167.65625 115.300781 165.398438 L 133.167969 165.398438 L 140.414062 158.15625 L 159.445312 158.15625 L 172.027344 170.738281 L 176.757812 170.738281 L 176.757812 172.078125 L 178.863281 172.078125 L 178.863281 175.699219 L 176.757812 175.699219 L 176.757812 176.851562 L 167.410156 176.851562 L 158.453125 167.894531 C 159.257812 166.84375 159.179688 165.335938 158.21875 164.375 C 157.175781 163.332031 155.476562 163.332031 154.429688 164.375 C 153.386719 165.421875 153.386719 167.117188 154.429688 168.164062 C 155.394531 169.125 156.898438 169.203125 157.949219 168.398438 L 167.117188 177.5625 L 176.757812 177.5625 L 176.757812 178.726562 L 178.863281 178.726562 L 178.863281 182.347656 L 176.757812 182.347656 L 176.757812 183.324219 L 167.722656 183.324219 L 157.746094 173.347656 L 117.171875 173.347656 L 110.320312 180.203125 L 100.453125 180.203125 C 100.191406 178.234375 98.511719 176.71875 96.476562 176.71875 C 94.257812 176.71875 92.457031 178.515625 92.457031 180.734375 C 92.457031 182.953125 94.257812 184.753906 96.476562 184.753906 C 98.511719 184.753906 100.191406 183.234375 100.453125 181.269531 L 110.761719 181.269531 L 117.613281 174.417969 L 157.304688 174.417969 L 167.28125 184.390625 L 176.757812 184.390625 L 176.757812 185.378906 L 178.863281 185.378906 L 178.863281 189 L 176.757812 189 L 176.757812 189.800781 L 164.324219 189.800781 L 153.839844 179.316406 L 139.109375 179.316406 C 138.933594 178.007812 137.816406 176.996094 136.457031 176.996094 C 134.976562 176.996094 133.78125 178.195312 133.78125 179.671875 C 133.78125 181.152344 134.976562 182.351562 136.457031 182.351562 C 137.816406 182.351562 138.933594 181.339844 139.109375 180.03125 L 153.542969 180.03125 L 164.027344 190.511719 L 176.757812 190.511719 L 176.757812 192.027344 L 178.863281 192.027344 L 178.863281 195.648438 L 176.757812 195.648438 L 176.757812 196.386719 L 157.035156 196.386719 L 149.378906 188.730469 L 115.300781 188.730469 C 115.035156 186.472656 113.113281 184.710938 110.785156 184.710938 C 108.273438 184.710938 106.230469 186.753906 106.230469 189.265625 C 106.230469 191.773438 108.273438 193.816406 110.785156 193.816406 C 113.113281 193.816406 115.035156 192.058594 115.300781 189.800781 L 148.9375 189.800781 L 156.59375 197.457031 L 176.757812 197.457031 L 176.757812 198.675781 L 178.863281 198.675781 L 178.863281 202.296875 L 176.757812 202.296875 L 176.757812 203.335938 L 164.027344 203.335938 L 156.253906 211.109375 L 142.953125 211.109375 L 135.859375 204.015625 L 130.089844 204.015625 C 129.910156 202.511719 128.628906 201.339844 127.074219 201.339844 C 125.402344 201.339844 124.042969 202.699219 124.042969 204.375 C 124.042969 206.046875 125.402344 207.410156 127.074219 207.410156 C 128.628906 207.410156 129.910156 206.234375 130.089844 204.730469 L 135.5625 204.730469 L 142.65625 211.820312 L 156.550781 211.820312 L 164.324219 204.046875 L 176.757812 204.046875 L 176.757812 205.324219 L 178.863281 205.324219 L 178.863281 208.949219 L 176.757812 208.949219 L 176.757812 209.917969 L 165.144531 209.917969 L 155.523438 219.535156 L 134.269531 219.535156 L 126.527344 227.28125 C 124.953125 226.074219 122.691406 226.1875 121.25 227.628906 C 119.683594 229.199219 119.683594 231.742188 121.25 233.3125 C 122.820312 234.878906 125.367188 234.878906 126.933594 233.3125 C 128.375 231.871094 128.488281 229.609375 127.28125 228.035156 L 134.710938 220.605469 L 155.964844 220.605469 L 165.585938 210.988281 L 176.757812 210.988281 L 176.757812 211.972656 L 178.863281 211.972656 L 178.863281 213.84375 L 180.734375 213.84375 L 180.734375 215.953125 L 181.742188 215.953125 L 181.742188 227.125 L 172.125 236.742188 L 172.125 257.996094 L 164.695312 265.425781 C 163.121094 264.21875 160.859375 264.335938 159.421875 265.777344 C 157.851562 267.34375 157.851562 269.886719 159.421875 271.457031 C 160.988281 273.027344 163.53125 273.027344 165.101562 271.457031 C 166.542969 270.015625 166.65625 267.757812 165.453125 266.179688 L 173.195312 258.441406 L 173.195312 237.1875 L 182.8125 227.566406 L 182.8125 215.953125 L 183.761719 215.953125 L 183.761719 213.84375 L 187.382812 213.84375 L 187.382812 215.953125 L 188.683594 215.953125 L 188.683594 228.386719 L 180.910156 236.160156 L 180.910156 250.054688 L 188.003906 257.144531 L 188.003906 262.621094 C 186.496094 262.796875 185.324219 264.078125 185.324219 265.632812 C 185.324219 267.304688 186.683594 268.667969 188.359375 268.667969 C 190.03125 268.667969 191.390625 267.304688 191.390625 265.632812 C 191.390625 264.078125 190.21875 262.796875 188.714844 262.621094 L 188.714844 256.851562 L 181.621094 249.757812 L 181.621094 236.453125 L 189.394531 228.679688 L 189.394531 215.953125 L 190.410156 215.953125 L 190.410156 213.84375 L 194.035156 213.84375 L 194.035156 215.953125 L 195.277344 215.953125 L 195.277344 236.117188 L 202.933594 243.773438 L 202.933594 277.40625 C 200.675781 277.671875 198.914062 279.597656 198.914062 281.925781 C 198.914062 284.433594 200.957031 286.476562 203.464844 286.476562 C 205.976562 286.476562 208.019531 284.433594 208.019531 281.925781 C 208.019531 279.597656 206.261719 277.671875 204.003906 277.40625 L 204.003906 243.332031 L 196.34375 235.675781 L 196.34375 215.953125 L 197.0625 215.953125 L 197.0625 213.84375 L 200.683594 213.84375 L 200.683594 215.953125 L 202.21875 215.953125 L 202.21875 228.679688 L 212.699219 239.164062 L 212.699219 253.597656 C 211.390625 253.773438 210.378906 254.894531 210.378906 256.253906 C 210.378906 257.730469 211.578125 258.929688 213.058594 258.929688 C 214.535156 258.929688 215.738281 257.730469 215.738281 256.253906 C 215.738281 254.894531 214.722656 253.773438 213.414062 253.597656 L 213.414062 238.867188 L 202.929688 228.386719 L 202.929688 215.953125 L 203.710938 215.953125 L 203.710938 213.84375 L 207.332031 213.84375 L 207.332031 215.953125 L 208.339844 215.953125 L 208.339844 225.429688 L 218.3125 235.402344 L 218.3125 275.09375 L 211.460938 281.949219 L 211.460938 292.253906 C 209.496094 292.515625 207.976562 294.195312 207.976562 296.234375 C 207.976562 298.453125 209.777344 300.25 211.996094 300.25 C 214.214844 300.25 216.015625 298.453125 216.015625 296.234375 " fill-opacity="1" fill-rule="nonzero"/></g><path fill="#1b66cd" d="M 228.828125 197.292969 L 195.6875 197.292969 L 195.6875 164.152344 L 228.828125 164.152344 Z M 231.996094 160.984375 L 192.523438 160.984375 L 192.523438 200.457031 L 231.996094 200.457031 L 231.996094 160.984375 " fill-opacity="1" fill-rule="nonzero"/><g clip-path="url(#b59ff0692c)"><path fill="#1b66cd" d="M 313.644531 185.941406 C 315.566406 185.941406 317.128906 187.503906 317.128906 189.425781 C 317.128906 191.347656 315.566406 192.910156 313.644531 192.910156 C 311.722656 192.910156 310.160156 191.347656 310.160156 189.425781 C 310.160156 187.503906 311.722656 185.941406 313.644531 185.941406 Z M 297.351562 202.210938 C 298.632812 202.210938 299.675781 203.253906 299.675781 204.535156 C 299.675781 205.816406 298.632812 206.855469 297.351562 206.855469 C 296.070312 206.855469 295.03125 205.816406 295.03125 204.535156 C 295.03125 203.253906 296.070312 202.210938 297.351562 202.210938 Z M 240.222656 208.683594 L 184.292969 208.683594 L 184.292969 152.757812 L 240.222656 152.757812 Z M 238.414062 265.816406 C 238.414062 267.097656 237.371094 268.136719 236.09375 268.136719 C 234.8125 268.136719 233.769531 267.097656 233.769531 265.816406 C 233.769531 264.535156 234.8125 263.492188 236.09375 263.492188 C 237.371094 263.492188 238.414062 264.535156 238.414062 265.816406 Z M 224.464844 282.109375 C 224.464844 284.03125 222.90625 285.59375 220.984375 285.59375 C 219.0625 285.59375 217.5 284.03125 217.5 282.109375 C 217.5 280.1875 219.0625 278.625 220.984375 278.625 C 222.90625 278.625 224.464844 280.1875 224.464844 282.109375 Z M 200.066406 282.109375 C 200.066406 284.03125 198.503906 285.59375 196.582031 285.59375 C 194.664062 285.59375 193.101562 284.03125 193.101562 282.109375 C 193.101562 280.1875 194.664062 278.625 196.582031 278.625 C 198.503906 278.625 200.066406 280.1875 200.066406 282.109375 Z M 127.164062 206.855469 C 125.882812 206.855469 124.839844 205.816406 124.839844 204.535156 C 124.839844 203.253906 125.882812 202.210938 127.164062 202.210938 C 128.445312 202.210938 129.484375 203.253906 129.484375 204.535156 C 129.484375 205.816406 128.445312 206.855469 127.164062 206.855469 Z M 110.871094 192.910156 C 108.949219 192.910156 107.386719 191.347656 107.386719 189.425781 C 107.386719 187.503906 108.949219 185.941406 110.871094 185.941406 C 112.792969 185.941406 114.355469 187.503906 114.355469 189.425781 C 114.355469 191.347656 112.792969 192.910156 110.871094 192.910156 Z M 110.871094 168.507812 C 108.949219 168.507812 107.386719 166.949219 107.386719 165.023438 C 107.386719 163.105469 108.949219 161.542969 110.871094 161.542969 C 112.792969 161.542969 114.355469 163.105469 114.355469 165.023438 C 114.355469 166.949219 112.792969 168.507812 110.871094 168.507812 Z M 193.101562 79.335938 C 193.101562 77.414062 194.664062 75.851562 196.582031 75.851562 C 198.503906 75.851562 200.066406 77.414062 200.066406 79.335938 C 200.066406 81.253906 198.503906 82.820312 196.582031 82.820312 C 194.664062 82.820312 193.101562 81.253906 193.101562 79.335938 Z M 217.5 79.335938 C 217.5 77.414062 219.0625 75.851562 220.984375 75.851562 C 222.90625 75.851562 224.464844 77.414062 224.464844 79.335938 C 224.464844 81.253906 222.90625 82.820312 220.984375 82.820312 C 219.0625 82.820312 217.5 81.253906 217.5 79.335938 Z M 233.769531 95.628906 C 233.769531 94.347656 234.8125 93.304688 236.09375 93.304688 C 237.371094 93.304688 238.414062 94.347656 238.414062 95.628906 C 238.414062 96.90625 237.371094 97.949219 236.09375 97.949219 C 234.8125 97.949219 233.769531 96.90625 233.769531 95.628906 Z M 313.644531 161.542969 C 315.566406 161.542969 317.128906 163.105469 317.128906 165.023438 C 317.128906 166.949219 315.566406 168.507812 313.644531 168.507812 C 311.722656 168.507812 310.160156 166.949219 310.160156 165.023438 C 310.160156 163.105469 311.722656 161.542969 313.644531 161.542969 Z M 327.953125 176.878906 C 325.914062 176.878906 324.234375 178.394531 323.972656 180.363281 L 314.109375 180.363281 L 307.257812 173.507812 L 266.679688 173.507812 L 256.707031 183.484375 L 247.671875 183.484375 L 247.671875 182.53125 L 245.5625 182.53125 L 245.5625 178.910156 L 247.671875 178.910156 L 247.671875 177.722656 L 257.3125 177.722656 L 266.476562 168.558594 C 267.527344 169.363281 269.035156 169.285156 269.996094 168.324219 C 271.042969 167.277344 271.042969 165.582031 269.996094 164.539062 C 268.949219 163.492188 267.253906 163.492188 266.207031 164.539062 C 265.25 165.496094 265.171875 167.003906 265.972656 168.054688 L 257.015625 177.011719 L 247.671875 177.011719 L 247.671875 175.882812 L 245.5625 175.882812 L 245.5625 172.261719 L 247.671875 172.261719 L 247.671875 170.902344 L 252.398438 170.902344 L 264.984375 158.316406 L 284.015625 158.316406 L 291.261719 165.558594 L 309.125 165.558594 C 309.390625 167.820312 311.316406 169.578125 313.644531 169.578125 C 316.152344 169.578125 318.195312 167.535156 318.195312 165.023438 C 318.195312 162.515625 316.152344 160.472656 313.644531 160.472656 C 311.316406 160.472656 309.390625 162.234375 309.125 164.492188 L 291.703125 164.492188 L 284.457031 157.25 L 264.542969 157.25 L 251.957031 169.832031 L 247.671875 169.832031 L 247.671875 169.234375 L 245.5625 169.234375 L 245.5625 165.613281 L 247.671875 165.613281 L 247.671875 164.296875 L 252.5625 164.296875 L 263.246094 153.617188 L 288.839844 153.617188 L 291.144531 155.921875 C 290.339844 156.972656 290.417969 158.476562 291.378906 159.441406 C 292.425781 160.484375 294.121094 160.484375 295.167969 159.441406 C 296.210938 158.390625 296.210938 156.695312 295.167969 155.652344 C 294.203125 154.691406 292.699219 154.613281 291.648438 155.417969 L 289.136719 152.902344 L 262.953125 152.902344 L 252.265625 163.589844 L 247.671875 163.589844 L 247.671875 162.585938 L 245.5625 162.585938 L 245.5625 158.960938 L 247.671875 158.960938 L 247.671875 157.730469 L 251.449219 157.730469 L 262.015625 147.164062 L 298.46875 147.164062 L 308.113281 137.519531 C 309.6875 138.726562 311.945312 138.609375 313.386719 137.171875 C 314.957031 135.601562 314.957031 133.058594 313.386719 131.492188 C 311.816406 129.921875 309.273438 129.921875 307.707031 131.492188 C 306.265625 132.929688 306.152344 135.191406 307.355469 136.765625 L 298.027344 146.09375 L 261.574219 146.09375 L 251.007812 156.660156 L 247.671875 156.660156 L 247.671875 155.933594 L 245.5625 155.933594 L 245.5625 152.3125 L 247.671875 152.3125 L 247.671875 151.253906 L 252.089844 151.253906 L 262.179688 141.160156 L 275.34375 141.160156 C 275.519531 142.46875 276.636719 143.480469 277.996094 143.480469 C 279.476562 143.480469 280.675781 142.285156 280.675781 140.804688 C 280.675781 139.324219 279.476562 138.125 277.996094 138.125 C 276.636719 138.125 275.519531 139.136719 275.34375 140.449219 L 261.886719 140.449219 L 251.792969 150.539062 L 247.671875 150.539062 L 247.671875 149.285156 L 245.5625 149.285156 L 245.5625 147.414062 L 243.691406 147.414062 L 243.691406 145.308594 L 242.707031 145.308594 L 242.707031 134.136719 L 252.324219 124.519531 L 252.324219 103.265625 L 259.753906 95.835938 C 261.328125 97.039062 263.589844 96.925781 265.03125 95.484375 C 266.597656 93.914062 266.597656 91.371094 265.03125 89.804688 C 263.460938 88.234375 260.917969 88.234375 259.347656 89.804688 C 257.90625 91.246094 257.792969 93.503906 259 95.078125 L 251.253906 102.820312 L 251.253906 124.074219 L 241.636719 133.695312 L 241.636719 145.308594 L 240.667969 145.308594 L 240.667969 147.414062 L 237.042969 147.414062 L 237.042969 145.308594 L 235.765625 145.308594 L 235.765625 132.875 L 243.539062 125.101562 L 243.539062 111.207031 L 236.449219 104.113281 L 236.449219 98.640625 C 237.953125 98.464844 239.128906 97.179688 239.128906 95.628906 C 239.128906 93.957031 237.765625 92.59375 236.09375 92.59375 C 234.417969 92.59375 233.058594 93.957031 233.058594 95.628906 C 233.058594 97.179688 234.230469 98.464844 235.734375 98.640625 L 235.734375 104.410156 L 242.828125 111.503906 L 242.828125 124.808594 L 235.054688 132.582031 L 235.054688 145.308594 L 234.015625 145.308594 L 234.015625 147.414062 L 230.394531 147.414062 L 230.394531 145.308594 L 229.175781 145.308594 L 229.175781 125.144531 L 221.519531 117.488281 L 221.519531 83.851562 C 223.777344 83.585938 225.535156 81.664062 225.535156 79.335938 C 225.535156 76.824219 223.492188 74.78125 220.984375 74.78125 C 218.472656 74.78125 216.429688 76.824219 216.429688 79.335938 C 216.429688 81.664062 218.191406 83.585938 220.449219 83.851562 L 220.449219 117.929688 L 228.105469 125.585938 L 228.105469 145.308594 L 227.367188 145.308594 L 227.367188 147.414062 L 223.746094 147.414062 L 223.746094 145.308594 L 222.230469 145.308594 L 222.230469 132.582031 L 211.75 122.09375 L 211.75 107.660156 C 213.058594 107.488281 214.070312 106.367188 214.070312 105.007812 C 214.070312 103.527344 212.871094 102.332031 211.390625 102.332031 C 209.914062 102.332031 208.714844 103.527344 208.714844 105.007812 C 208.714844 106.367188 209.726562 107.488281 211.035156 107.660156 L 211.035156 122.390625 L 221.519531 132.875 L 221.519531 145.308594 L 220.71875 145.308594 L 220.71875 147.414062 L 217.097656 147.414062 L 217.097656 145.308594 L 216.109375 145.308594 L 216.109375 135.832031 L 206.136719 125.855469 L 206.136719 86.164062 L 212.988281 79.3125 L 212.988281 69.003906 C 214.953125 68.742188 216.472656 67.0625 216.472656 65.027344 C 216.472656 62.808594 214.671875 61.007812 212.453125 61.007812 C 210.234375 61.007812 208.4375 62.808594 208.4375 65.027344 C 208.4375 67.0625 209.953125 68.742188 211.921875 69.003906 L 211.921875 78.871094 L 205.066406 85.722656 L 205.066406 126.296875 L 215.042969 136.273438 L 215.042969 145.308594 L 214.066406 145.308594 L 214.066406 147.414062 L 210.445312 147.414062 L 210.445312 145.308594 L 209.28125 145.308594 L 209.28125 135.667969 L 200.117188 126.5 C 200.921875 125.453125 200.84375 123.945312 199.882812 122.984375 C 198.835938 121.9375 197.140625 121.9375 196.09375 122.984375 C 195.050781 124.027344 195.050781 125.726562 196.09375 126.773438 C 197.054688 127.730469 198.5625 127.808594 199.613281 127.003906 L 208.570312 135.960938 L 208.570312 145.308594 L 207.417969 145.308594 L 207.417969 147.414062 L 203.796875 147.414062 L 203.796875 145.308594 L 202.457031 145.308594 L 202.457031 140.578125 L 189.875 127.996094 L 189.875 108.964844 L 197.117188 101.71875 L 197.117188 83.851562 C 199.375 83.585938 201.136719 81.664062 201.136719 79.335938 C 201.136719 76.824219 199.09375 74.78125 196.582031 74.78125 C 194.074219 74.78125 192.03125 76.824219 192.03125 79.335938 C 192.03125 81.664062 193.792969 83.585938 196.050781 83.851562 L 196.050781 101.277344 L 188.804688 108.519531 L 188.804688 128.4375 L 201.390625 141.023438 L 201.390625 145.308594 L 200.769531 145.308594 L 200.769531 147.414062 L 197.148438 147.414062 L 197.148438 145.308594 L 195.855469 145.308594 L 195.855469 140.417969 L 185.171875 129.730469 L 185.171875 104.140625 L 187.480469 101.835938 C 188.527344 102.636719 190.035156 102.5625 190.996094 101.601562 C 192.042969 100.554688 192.042969 98.859375 190.996094 97.8125 C 189.953125 96.765625 188.253906 96.765625 187.207031 97.8125 C 186.25 98.773438 186.171875 100.28125 186.976562 101.332031 L 184.460938 103.84375 L 184.460938 130.027344 L 195.144531 140.710938 L 195.144531 145.308594 L 194.121094 145.308594 L 194.121094 147.414062 L 190.496094 147.414062 L 190.496094 145.308594 L 189.289062 145.308594 L 189.289062 141.53125 L 178.722656 130.960938 L 178.722656 94.507812 L 169.078125 84.867188 C 170.285156 83.292969 170.171875 81.03125 168.730469 79.589844 C 167.160156 78.023438 164.617188 78.023438 163.046875 79.589844 C 161.480469 81.160156 161.480469 83.707031 163.046875 85.273438 C 164.488281 86.714844 166.75 86.828125 168.324219 85.625 L 177.652344 94.949219 L 177.652344 131.40625 L 188.21875 141.972656 L 188.21875 145.308594 L 187.472656 145.308594 L 187.472656 147.414062 L 183.847656 147.414062 L 183.847656 145.308594 L 182.8125 145.308594 L 182.8125 140.890625 L 172.71875 130.800781 L 172.71875 117.632812 C 174.027344 117.460938 175.039062 116.339844 175.039062 114.984375 C 175.039062 113.503906 173.839844 112.304688 172.359375 112.304688 C 170.882812 112.304688 169.683594 113.503906 169.683594 114.984375 C 169.683594 116.339844 170.695312 117.460938 172.003906 117.632812 L 172.003906 131.09375 L 182.097656 141.1875 L 182.097656 145.308594 L 180.820312 145.308594 L 180.820312 147.414062 L 178.953125 147.414062 L 178.953125 149.285156 L 176.84375 149.285156 L 176.84375 150.539062 L 172.722656 150.539062 L 162.628906 140.449219 L 149.167969 140.449219 C 148.996094 139.136719 147.875 138.125 146.519531 138.125 C 145.039062 138.125 143.839844 139.324219 143.839844 140.804688 C 143.839844 142.285156 145.039062 143.480469 146.519531 143.480469 C 147.875 143.480469 148.996094 142.46875 149.167969 141.160156 L 162.332031 141.160156 L 172.425781 151.253906 L 176.84375 151.253906 L 176.84375 152.3125 L 178.953125 152.3125 L 178.953125 155.933594 L 176.84375 155.933594 L 176.84375 156.660156 L 173.507812 156.660156 L 162.941406 146.09375 L 126.488281 146.09375 L 117.160156 136.765625 C 118.363281 135.191406 118.25 132.929688 116.808594 131.492188 C 115.242188 129.921875 112.695312 129.921875 111.128906 131.492188 C 109.558594 133.058594 109.558594 135.601562 111.128906 137.171875 C 112.570312 138.609375 114.828125 138.726562 116.402344 137.519531 L 126.046875 147.164062 L 162.5 147.164062 L 173.066406 157.730469 L 176.84375 157.730469 L 176.84375 158.960938 L 178.953125 158.960938 L 178.953125 162.585938 L 176.84375 162.585938 L 176.84375 163.589844 L 172.25 163.589844 L 161.5625 152.902344 L 135.378906 152.902344 L 132.867188 155.417969 C 131.816406 154.613281 130.308594 154.691406 129.347656 155.652344 C 128.304688 156.695312 128.304688 158.390625 129.347656 159.441406 C 130.394531 160.484375 132.089844 160.484375 133.136719 159.441406 C 134.097656 158.476562 134.171875 156.972656 133.371094 155.921875 L 135.675781 153.617188 L 161.269531 153.617188 L 171.953125 164.296875 L 176.84375 164.296875 L 176.84375 165.613281 L 178.953125 165.613281 L 178.953125 169.234375 L 176.84375 169.234375 L 176.84375 169.832031 L 172.558594 169.832031 L 159.972656 157.25 L 140.054688 157.25 L 132.8125 164.492188 L 115.386719 164.492188 C 115.125 162.234375 113.199219 160.472656 110.871094 160.472656 C 108.359375 160.472656 106.320312 162.515625 106.320312 165.023438 C 106.320312 167.535156 108.359375 169.578125 110.871094 169.578125 C 113.199219 169.578125 115.125 167.820312 115.386719 165.558594 L 133.253906 165.558594 L 140.5 158.316406 L 159.53125 158.316406 L 172.117188 170.902344 L 176.84375 170.902344 L 176.84375 172.261719 L 178.953125 172.261719 L 178.953125 175.882812 L 176.84375 175.882812 L 176.84375 177.011719 L 167.496094 177.011719 L 158.539062 168.054688 C 159.34375 167.003906 159.265625 165.496094 158.308594 164.539062 C 157.261719 163.492188 155.5625 163.492188 154.519531 164.539062 C 153.472656 165.582031 153.472656 167.277344 154.519531 168.324219 C 155.480469 169.285156 156.988281 169.363281 158.035156 168.558594 L 167.203125 177.722656 L 176.84375 177.722656 L 176.84375 178.910156 L 178.953125 178.910156 L 178.953125 182.53125 L 176.84375 182.53125 L 176.84375 183.484375 L 167.808594 183.484375 L 157.835938 173.507812 L 117.257812 173.507812 L 110.40625 180.363281 L 100.539062 180.363281 C 100.28125 178.394531 98.601562 176.878906 96.5625 176.878906 C 94.34375 176.878906 92.542969 178.675781 92.542969 180.894531 C 92.542969 183.113281 94.34375 184.914062 96.5625 184.914062 C 98.601562 184.914062 100.28125 183.394531 100.539062 181.429688 L 110.847656 181.429688 L 117.699219 174.578125 L 157.390625 174.578125 L 167.363281 184.550781 L 176.84375 184.550781 L 176.84375 185.5625 L 178.953125 185.5625 L 178.953125 189.179688 L 176.84375 189.179688 L 176.84375 189.960938 L 164.410156 189.960938 L 153.925781 179.476562 L 139.195312 179.476562 C 139.023438 178.167969 137.902344 177.15625 136.542969 177.15625 C 135.066406 177.15625 133.867188 178.355469 133.867188 179.835938 C 133.867188 181.3125 135.066406 182.515625 136.542969 182.515625 C 137.902344 182.515625 139.023438 181.5 139.195312 180.191406 L 153.632812 180.191406 L 164.117188 190.675781 L 176.84375 190.675781 L 176.84375 192.210938 L 178.953125 192.210938 L 178.953125 195.832031 L 176.84375 195.832031 L 176.84375 196.550781 L 157.121094 196.550781 L 149.464844 188.890625 L 115.386719 188.890625 C 115.125 186.632812 113.199219 184.871094 110.871094 184.871094 C 108.359375 184.871094 106.320312 186.914062 106.320312 189.425781 C 106.320312 191.933594 108.359375 193.976562 110.871094 193.976562 C 113.199219 193.976562 115.125 192.21875 115.386719 189.960938 L 149.023438 189.960938 L 156.679688 197.617188 L 176.84375 197.617188 L 176.84375 198.859375 L 178.953125 198.859375 L 178.953125 202.480469 L 176.84375 202.480469 L 176.84375 203.496094 L 164.117188 203.496094 L 156.34375 211.269531 L 143.035156 211.269531 L 135.945312 204.175781 L 130.175781 204.175781 C 130 202.671875 128.714844 201.5 127.164062 201.5 C 125.492188 201.5 124.128906 202.859375 124.128906 204.535156 C 124.128906 206.207031 125.492188 207.570312 127.164062 207.570312 C 128.714844 207.570312 130 206.398438 130.175781 204.890625 L 135.648438 204.890625 L 142.742188 211.984375 L 156.636719 211.984375 L 164.410156 204.210938 L 176.84375 204.210938 L 176.84375 205.507812 L 178.953125 205.507812 L 178.953125 209.128906 L 176.84375 209.128906 L 176.84375 210.078125 L 165.226562 210.078125 L 155.609375 219.699219 L 134.355469 219.699219 L 126.617188 227.441406 C 125.039062 226.234375 122.78125 226.351562 121.339844 227.789062 C 119.769531 229.359375 119.769531 231.902344 121.339844 233.472656 C 122.910156 235.039062 125.453125 235.039062 127.019531 233.472656 C 128.460938 232.03125 128.574219 229.769531 127.371094 228.195312 L 134.800781 220.765625 L 156.054688 220.765625 L 165.671875 211.148438 L 176.84375 211.148438 L 176.84375 212.15625 L 178.953125 212.15625 L 178.953125 214.027344 L 180.820312 214.027344 L 180.820312 216.136719 L 182.097656 216.136719 L 182.097656 220.257812 L 172.003906 230.351562 L 172.003906 243.808594 C 170.695312 243.984375 169.683594 245.101562 169.683594 246.460938 C 169.683594 247.941406 170.882812 249.140625 172.359375 249.140625 C 173.839844 249.140625 175.039062 247.941406 175.039062 246.460938 C 175.039062 245.101562 174.027344 243.984375 172.71875 243.808594 L 172.71875 230.644531 L 182.8125 220.550781 L 182.8125 216.136719 L 183.847656 216.136719 L 183.847656 214.027344 L 187.472656 214.027344 L 187.472656 216.136719 L 188.21875 216.136719 L 188.21875 219.472656 L 177.652344 230.039062 L 177.652344 266.492188 L 168.324219 275.820312 C 166.75 274.613281 164.488281 274.730469 163.046875 276.171875 C 161.480469 277.738281 161.480469 280.28125 163.046875 281.851562 C 164.617188 283.421875 167.160156 283.421875 168.730469 281.851562 C 170.171875 280.410156 170.285156 278.152344 169.078125 276.574219 L 178.722656 266.933594 L 178.722656 230.480469 L 189.289062 219.914062 L 189.289062 216.136719 L 190.496094 216.136719 L 190.496094 214.027344 L 194.121094 214.027344 L 194.121094 216.136719 L 195.144531 216.136719 L 195.144531 220.730469 L 184.460938 231.417969 L 184.460938 257.597656 L 186.976562 260.113281 C 186.171875 261.164062 186.25 262.667969 187.207031 263.628906 C 188.253906 264.675781 189.953125 264.675781 190.996094 263.628906 C 192.042969 262.585938 192.042969 260.890625 190.996094 259.839844 C 190.035156 258.882812 188.527344 258.804688 187.480469 259.609375 L 185.171875 257.304688 L 185.171875 231.710938 L 195.855469 221.027344 L 195.855469 216.136719 L 197.148438 216.136719 L 197.148438 214.027344 L 200.769531 214.027344 L 200.769531 216.136719 L 201.390625 216.136719 L 201.390625 220.421875 L 188.804688 233.007812 L 188.804688 252.921875 L 196.050781 260.167969 L 196.050781 277.589844 C 193.792969 277.855469 192.03125 279.78125 192.03125 282.109375 C 192.03125 284.621094 194.074219 286.660156 196.582031 286.660156 C 199.09375 286.660156 201.136719 284.621094 201.136719 282.109375 C 201.136719 279.78125 199.375 277.855469 197.117188 277.589844 L 197.117188 259.726562 L 189.875 252.480469 L 189.875 233.449219 L 202.457031 220.863281 L 202.457031 216.136719 L 203.796875 216.136719 L 203.796875 214.027344 L 207.417969 214.027344 L 207.417969 216.136719 L 208.570312 216.136719 L 208.570312 225.480469 L 199.613281 234.4375 C 198.5625 233.636719 197.054688 233.710938 196.09375 234.671875 C 195.050781 235.71875 195.050781 237.414062 196.09375 238.460938 C 197.140625 239.507812 198.835938 239.507812 199.882812 238.460938 C 200.84375 237.5 200.921875 235.992188 200.117188 234.941406 L 209.28125 225.777344 L 209.28125 216.136719 L 210.445312 216.136719 L 210.445312 214.027344 L 214.066406 214.027344 L 214.066406 216.136719 L 215.042969 216.136719 L 215.042969 225.171875 L 205.066406 235.144531 L 205.066406 275.71875 L 211.921875 282.574219 L 211.921875 292.4375 C 209.953125 292.699219 208.4375 294.378906 208.4375 296.417969 C 208.4375 298.632812 210.234375 300.433594 212.453125 300.433594 C 214.671875 300.433594 216.472656 298.632812 216.472656 296.417969 C 216.472656 294.378906 214.953125 292.699219 212.988281 292.4375 L 212.988281 282.132812 L 206.136719 275.277344 L 206.136719 235.585938 L 216.109375 225.613281 L 216.109375 216.136719 L 217.097656 216.136719 L 217.097656 214.027344 L 220.71875 214.027344 L 220.71875 216.136719 L 221.519531 216.136719 L 221.519531 228.570312 L 211.035156 239.054688 L 211.035156 253.78125 C 209.726562 253.957031 208.714844 255.078125 208.714844 256.433594 C 208.714844 257.914062 209.914062 259.113281 211.390625 259.113281 C 212.871094 259.113281 214.070312 257.914062 214.070312 256.433594 C 214.070312 255.078125 213.058594 253.957031 211.75 253.78125 L 211.75 239.347656 L 222.230469 228.863281 L 222.230469 216.136719 L 223.746094 216.136719 L 223.746094 214.027344 L 227.367188 214.027344 L 227.367188 216.136719 L 228.105469 216.136719 L 228.105469 235.859375 L 220.449219 243.515625 L 220.449219 277.589844 C 218.191406 277.855469 216.429688 279.78125 216.429688 282.109375 C 216.429688 284.621094 218.472656 286.660156 220.984375 286.660156 C 223.492188 286.660156 225.535156 284.621094 225.535156 282.109375 C 225.535156 279.78125 223.777344 277.855469 221.519531 277.589844 L 221.519531 243.957031 L 229.175781 236.300781 L 229.175781 216.136719 L 230.394531 216.136719 L 230.394531 214.027344 L 234.015625 214.027344 L 234.015625 216.136719 L 235.054688 216.136719 L 235.054688 228.863281 L 242.828125 236.636719 L 242.828125 249.941406 L 235.734375 257.035156 L 235.734375 262.804688 C 234.230469 262.980469 233.058594 264.261719 233.058594 265.816406 C 233.058594 267.488281 234.417969 268.851562 236.09375 268.851562 C 237.765625 268.851562 239.128906 267.488281 239.128906 265.816406 C 239.128906 264.261719 237.953125 262.980469 236.449219 262.804688 L 236.449219 257.328125 L 243.539062 250.234375 L 243.539062 236.339844 L 235.765625 228.570312 L 235.765625 216.136719 L 237.042969 216.136719 L 237.042969 214.027344 L 240.667969 214.027344 L 240.667969 216.136719 L 241.636719 216.136719 L 241.636719 227.75 L 251.253906 237.367188 L 251.253906 258.625 L 259 266.363281 C 257.792969 267.941406 257.90625 270.199219 259.347656 271.640625 C 260.917969 273.210938 263.460938 273.210938 265.03125 271.640625 C 266.597656 270.070312 266.597656 267.527344 265.03125 265.957031 C 263.589844 264.519531 261.328125 264.402344 259.753906 265.609375 L 252.324219 258.179688 L 252.324219 236.925781 L 242.707031 227.308594 L 242.707031 216.136719 L 243.691406 216.136719 L 243.691406 214.027344 L 245.5625 214.027344 L 245.5625 212.15625 L 247.671875 212.15625 L 247.671875 211.148438 L 258.84375 211.148438 L 268.460938 220.765625 L 289.714844 220.765625 L 297.144531 228.195312 C 295.9375 229.769531 296.054688 232.03125 297.496094 233.472656 C 299.0625 235.039062 301.605469 235.039062 303.175781 233.472656 C 304.746094 231.902344 304.746094 229.359375 303.175781 227.789062 C 301.734375 226.351562 299.476562 226.234375 297.898438 227.441406 L 290.160156 219.699219 L 268.90625 219.699219 L 259.285156 210.078125 L 247.671875 210.078125 L 247.671875 209.128906 L 245.5625 209.128906 L 245.5625 205.507812 L 247.671875 205.507812 L 247.671875 204.210938 L 260.105469 204.210938 L 267.878906 211.984375 L 281.773438 211.984375 L 288.863281 204.890625 L 294.339844 204.890625 C 294.515625 206.398438 295.796875 207.570312 297.351562 207.570312 C 299.023438 207.570312 300.386719 206.207031 300.386719 204.535156 C 300.386719 202.859375 299.023438 201.5 297.351562 201.5 C 295.796875 201.5 294.515625 202.671875 294.339844 204.175781 L 288.570312 204.175781 L 281.476562 211.269531 L 268.171875 211.269531 L 260.398438 203.496094 L 247.671875 203.496094 L 247.671875 202.480469 L 245.5625 202.480469 L 245.5625 198.859375 L 247.671875 198.859375 L 247.671875 197.617188 L 267.835938 197.617188 L 275.492188 189.960938 L 309.125 189.960938 C 309.390625 192.21875 311.316406 193.976562 313.644531 193.976562 C 316.152344 193.976562 318.195312 191.933594 318.195312 189.425781 C 318.195312 186.914062 316.152344 184.871094 313.644531 184.871094 C 311.316406 184.871094 309.390625 186.632812 309.125 188.890625 L 275.050781 188.890625 L 267.394531 196.550781 L 247.671875 196.550781 L 247.671875 195.832031 L 245.5625 195.832031 L 245.5625 192.210938 L 247.671875 192.210938 L 247.671875 190.675781 L 260.398438 190.675781 L 270.882812 180.191406 L 285.316406 180.191406 C 285.492188 181.5 286.613281 182.515625 287.972656 182.515625 C 289.449219 182.515625 290.648438 181.3125 290.648438 179.835938 C 290.648438 178.355469 289.449219 177.15625 287.972656 177.15625 C 286.613281 177.15625 285.492188 178.167969 285.316406 179.476562 L 270.585938 179.476562 L 260.105469 189.960938 L 247.671875 189.960938 L 247.671875 189.179688 L 245.5625 189.179688 L 245.5625 185.5625 L 247.671875 185.5625 L 247.671875 184.550781 L 257.148438 184.550781 L 267.121094 174.578125 L 306.8125 174.578125 L 313.667969 181.429688 L 323.972656 181.429688 C 324.234375 183.394531 325.914062 184.914062 327.953125 184.914062 C 330.171875 184.914062 331.96875 183.113281 331.96875 180.894531 C 331.96875 178.675781 330.171875 176.878906 327.953125 176.878906 " fill-opacity="1" fill-rule="nonzero"/></g><g fill="#1b66cd" fill-opacity="1"><g transform="translate(171.983178, 296.378498)"><g><path d="M 70.328125 -53.582031 C 70.328125 -60.949219 64.300781 -66.976562 56.929688 -66.976562 L 3.347656 -66.976562 L 3.347656 0 L 16.746094 0 L 16.746094 -26.792969 L 24.613281 -26.792969 L 49.398438 -2.007812 C 50.734375 -0.667969 52.410156 0 54.253906 0 L 70.328125 0 L 70.328125 -13.394531 L 56.929688 -13.394531 L 43.535156 -26.792969 L 56.929688 -26.792969 C 64.300781 -26.792969 70.328125 -32.820312 70.328125 -40.1875 Z M 56.929688 -53.582031 L 56.929688 -40.1875 L 16.746094 -40.1875 L 16.746094 -53.582031 Z M 56.929688 -53.582031 "/></g></g></g></svg>